<?xml version="1.0" encoding="UTF-8" standalone="no"?>
<!-- Created with Inkscape (http://www.inkscape.org/) -->

<svg
   xmlns:dc="http://purl.org/dc/elements/1.1/"
   xmlns:cc="http://creativecommons.org/ns#"
   xmlns:rdf="http://www.w3.org/1999/02/22-rdf-syntax-ns#"
   xmlns:svg="http://www.w3.org/2000/svg"
   xmlns="http://www.w3.org/2000/svg"
   xmlns:sodipodi="http://sodipodi.sourceforge.net/DTD/sodipodi-0.dtd"
   xmlns:inkscape="http://www.inkscape.org/namespaces/inkscape"
   width="1000"
   height="1000"
   id="svg12655"
   version="1.1"
   inkscape:version="0.48.4 r9939"
   sodipodi:docname="New document 3">
  <defs
     id="defs5498" />
  <sodipodi:namedview
     inkscape:window-height="690"
     inkscape:window-width="667"
     inkscape:pageshadow="2"
     inkscape:pageopacity="0.0"
     borderopacity="1.0"
     bordercolor="#666666"
     pagecolor="#ffffff"
     id="base"
     showgrid="false"
     showguides="true"
     inkscape:guide-bbox="true"
     inkscape:zoom="0.227"
     inkscape:cx="218.38745"
     inkscape:cy="407.2239"
     inkscape:window-x="1707"
     inkscape:window-y="0"
     inkscape:current-layer="layer1"
     inkscape:window-maximized="0">
    <sodipodi:guide
       orientation="horizontal"
       position="200"
       id="guide5596" />
  </sodipodi:namedview>
  <metadata
     id="metadata5594">
    <rdf:RDF>
      <cc:Work
         rdf:about="">
        <dc:format>image/svg+xml</dc:format>
        <dc:type
           rdf:resource="http://purl.org/dc/dcmitype/StillImage" />
        <dc:title></dc:title>
      </cc:Work>
    </rdf:RDF>
  </metadata>
  <g
     inkscape:label="Layer 1"
     inkscape:groupmode="layer"
     id="layer1">
    <rect
       style="fill:#000000;fill-opacity:0;stroke:#525c97;stroke-width:25.34174728;stroke-linejoin:round;stroke-miterlimit:4;stroke-opacity:1;stroke-dasharray:none"
       id="rect3049"
       width="982.81903"
       height="982.81903"
       x="17.401047"
       y="21.806339"
       ry="52.887123"
       inkscape:export-filename="C:\Masters In Web Tech\AdvRichInternetApplications\ARIA Project\DerekCapX09106561_AriaProjectGit\TableTennisSite\PhamilyFotos\images\uploadIcon.png"
       inkscape:export-xdpi="90"
       inkscape:export-ydpi="90" />
    <path
       id="rect3819"
       style="fill:none;stroke:#525c97;stroke-width:25.34174728;stroke-linecap:butt;stroke-linejoin:miter;stroke-miterlimit:4;stroke-opacity:1"
       d="m 679.95005,367.77631 c 67.09135,0 201.27402,0 201.27402,0 29.29948,0 52.88713,23.58765 52.88713,52.88712 l 0,484.79862 c 0,29.29945 -23.58765,52.8871 -52.88713,52.8871 l -742.62335,0 c -29.29947,0 -52.887132,-23.58765 -52.887132,-52.8871 l 0,-484.79862 c 0,-29.29947 23.587662,-52.88712 52.887132,-52.88712 0,0 86.21057,0 195.42852,0 m 456.89995,183.75712 c -0.14192,-4.81527 -1.69529,-9.59485 -4.47612,-13.77268 L 660.915,350.31445 535.37695,162.86817 c -5.91049,-8.79447 -17.47726,-14.54147 -29.26697,-14.54147 -11.7897,0 -23.35647,5.747 -29.26696,14.54147 L 351.37383,350.31445 225.76694,537.76075 c -5.93382,8.81465 -5.95518,20.36222 -0.054,29.19314 5.90117,8.83094 17.4993,14.60766 29.32097,14.604 l 75.33659,0 0,265.39971 c 0,29.29946 23.58766,52.88712 52.88712,52.88712 l 240.54001,0 c 29.29946,0 52.88711,-23.58766 52.88711,-52.88712 l 0,-265.39971 80.50137,0 c 9.01122,-0.0154 17.95558,-3.28986 24.22599,-8.86926 6.2704,-5.57936 9.78416,-13.38998 9.5171,-21.1552 z"
       inkscape:connector-curvature="0"
       sodipodi:nodetypes="csssssssscccccscccsccssssccscc"
       inkscape:export-filename="C:\Masters In Web Tech\AdvRichInternetApplications\ARIA Project\DerekCapX09106561_AriaProjectGit\TableTennisSite\PhamilyFotos\images\uploadIcon.png"
       inkscape:export-xdpi="90"
       inkscape:export-ydpi="90" />
  </g>
</svg>
